<svg width="21" height="18" viewBox="0 0 21 18" fill="none" xmlns="http://www.w3.org/2000/svg">
<path d="M6.69043 2.36206H12.585C15.9851 2.36232 18.7412 5.11908 18.7412 8.51929C18.741 11.9193 15.985 14.6753 12.585 14.6755H9.40039L9.31836 14.7048L2.24219 17.239L2.69727 14.6228L2.79883 14.0369H2.20508C1.26372 14.0369 0.50024 13.2741 0.5 12.3328V8.55249C0.500048 5.13363 3.27157 2.36211 6.69043 2.36206Z" stroke="#F8F8F2"/>
<path d="M15.243 1.4345C15.6455 0.789268 16.5924 0.811641 16.964 1.47516L16.987 1.51635C17.083 1.68773 17.2295 1.82536 17.4065 1.9105L17.4355 1.92448C18.1534 2.26978 18.1435 3.29541 17.4192 3.62684C17.2344 3.7114 17.082 3.85354 16.9847 4.03198L16.9693 4.06037C16.6003 4.73743 15.6363 4.7599 15.2363 4.10077L15.1746 3.99911C15.0787 3.84114 14.9392 3.71429 14.7728 3.63384C14.0598 3.28899 14.0497 2.27691 14.7558 1.91794L14.786 1.90255C14.9441 1.82216 15.0773 1.70014 15.1712 1.54964L15.243 1.4345Z" fill="#F8F8F2"/>
<path d="M18.0829 5.14321C18.3338 4.77072 18.8865 4.78424 19.1189 5.16855L19.1328 5.19156C19.1887 5.284 19.2716 5.35712 19.3703 5.40108L19.3861 5.40812C19.8028 5.5937 19.7974 6.18697 19.3774 6.3649C19.2743 6.40856 19.1881 6.48419 19.1313 6.58064L19.1169 6.60522C18.8883 6.99358 18.3315 7.00704 18.0845 6.63018L18.0398 6.56199C17.9842 6.47719 17.9054 6.4101 17.8129 6.36866C17.399 6.18332 17.3935 5.59773 17.8038 5.40458L17.8202 5.39682C17.9082 5.35542 17.9833 5.29099 18.0376 5.21038L18.0829 5.14321Z" fill="#F8F8F2"/>
</svg>
